<svg xmlns="http://www.w3.org/2000/svg" id="dashboard" width="25.28" height="25.28" viewBox="0 0 25.28 25.28">
    <defs>
        <style>
            .cls-1{fill:#fff}
        </style>
    </defs>
    <path id="Path_12149" d="M9.716 0H1.838A1.84 1.84 0 0 0 0 1.838v4.727A1.84 1.84 0 0 0 1.838 8.4h7.878a1.84 1.84 0 0 0 1.838-1.838V1.838A1.84 1.84 0 0 0 9.716 0zm0 0" class="cls-1"/>
    <path id="Path_12150" d="M9.716 213.332H1.838A1.84 1.84 0 0 0 0 215.17v11.03a1.84 1.84 0 0 0 1.838 1.838h7.878a1.84 1.84 0 0 0 1.838-1.838v-11.03a1.84 1.84 0 0 0-1.838-1.838zm0 0" class="cls-1" transform="translate(0 -202.757)"/>
    <path id="Path_12151" d="M287.048 341.332h-7.878a1.84 1.84 0 0 0-1.838 1.838v4.73a1.84 1.84 0 0 0 1.838 1.838h7.878a1.84 1.84 0 0 0 1.838-1.838v-4.73a1.84 1.84 0 0 0-1.838-1.838zm0 0" class="cls-1" transform="translate(-263.606 -324.455)"/>
    <path id="Path_12152" d="M287.048 0h-7.878a1.84 1.84 0 0 0-1.838 1.838v11.029a1.84 1.84 0 0 0 1.838 1.833h7.878a1.84 1.84 0 0 0 1.838-1.838V1.838A1.84 1.84 0 0 0 287.048 0zm0 0" class="cls-1" transform="translate(-263.606)"/>
</svg>
