<svg xmlns="http://www.w3.org/2000/svg" id="google-docs" width="20.324" height="26.682" viewBox="0 0 20.324 26.682">
    <defs>
        <style>
            .cls-1{fill:#fff}
        </style>
    </defs>
    <path id="Path_12132" d="M63.345 26.682h15.634a2.348 2.348 0 0 0 2.345-2.345V7.817h-5.472a2.348 2.348 0 0 1-2.345-2.345V0H63.345A2.348 2.348 0 0 0 61 2.345v21.992a2.348 2.348 0 0 0 2.345 2.345zM66.472 11h9.38a.782.782 0 0 1 0 1.563h-9.38a.782.782 0 1 1 0-1.563zm0 3.127h9.38a.782.782 0 0 1 0 1.563h-9.38a.782.782 0 1 1 0-1.563zm0 3.127h9.38a.782.782 0 0 1 0 1.563h-9.38a.782.782 0 1 1 0-1.563zm0 3.127h6.254a.782.782 0 1 1 0 1.563h-6.254a.782.782 0 1 1 0-1.563z" class="cls-1" transform="translate(-61)"/>
    <path id="Path_12133" d="M331.782 14.585h5.018l-5.8-5.8V13.8a.782.782 0 0 0 .782.785z" class="cls-1" transform="translate(-316.929 -8.331)"/>
</svg>
