<svg xmlns="http://www.w3.org/2000/svg" width="23.716" height="23.716" viewBox="0 0 23.716 23.716">
    <g>
        <path fill="#fff" d="M23.188 9.848l-2.775-.681a8.95 8.95 0 0 0-.584-1.417l1.417-2.362a.691.691 0 0 0-.1-.848l-1.969-1.974a.691.691 0 0 0-.848-.1l-2.362 1.42a8.949 8.949 0 0 0-1.418-.586L13.882.528A.713.713 0 0 0 13.2 0h-2.778a.713.713 0 0 0-.681.528L9.074 3.3a8.949 8.949 0 0 0-1.417.584L5.294 2.469a.691.691 0 0 0-.848.1l-1.972 1.97a.691.691 0 0 0-.1.848l1.42 2.362a8.949 8.949 0 0 0-.584 1.418l-2.682.681a.685.685 0 0 0-.528.667v2.779a.685.685 0 0 0 .528.667l2.682.681a8.949 8.949 0 0 0 .584 1.417l-1.418 2.363a.691.691 0 0 0 .1.848l1.973 1.973a.691.691 0 0 0 .848.1l2.362-1.417a8.949 8.949 0 0 0 1.417.584l.667 2.682a.713.713 0 0 0 .681.528H13.2a.713.713 0 0 0 .681-.528l.667-2.682a8.949 8.949 0 0 0 1.417-.584l2.362 1.417a.691.691 0 0 0 .848-.1l1.973-1.973a.691.691 0 0 0 .1-.848l-1.418-2.363a8.95 8.95 0 0 0 .584-1.417l2.775-.681a.685.685 0 0 0 .528-.667v-2.779a.685.685 0 0 0-.529-.667zm-11.376 5.53a3.474 3.474 0 1 1 3.474-3.478 3.475 3.475 0 0 1-3.474 3.478z"/>
    </g>
</svg>
