<svg xmlns="http://www.w3.org/2000/svg" width="74.55" height="68.823" viewBox="0 0 74.55 68.823">
    <g>
        <path fill="#fff" d="M68.729 70.076h-2.17v-2.74a11.779 11.779 0 0 0-11.766-11.765H39.947V45.438h6.509a5.828 5.828 0 0 0 5.821-5.821V25.485a5.828 5.828 0 0 0-5.821-5.821h-17.39a5.828 5.828 0 0 0-5.821 5.821v14.131a5.828 5.828 0 0 0 5.821 5.821h6.509V55.57H19.854A11.779 11.779 0 0 0 8.089 67.336v2.74H5.821A5.828 5.828 0 0 0 0 75.9v6.769a5.828 5.828 0 0 0 5.821 5.821h8.906a5.828 5.828 0 0 0 5.821-5.821V75.9a5.828 5.828 0 0 0-5.821-5.821h-2.266v-2.74a7.4 7.4 0 0 1 7.393-7.393h15.721v10.13h-2.267a5.828 5.828 0 0 0-5.822 5.824v6.769a5.828 5.828 0 0 0 5.821 5.821h8.906a5.828 5.828 0 0 0 5.821-5.821V75.9a5.828 5.828 0 0 0-5.821-5.821h-2.266V59.943h14.846a7.4 7.4 0 0 1 7.393 7.393v2.74h-2.364A5.828 5.828 0 0 0 54 75.9v6.769a5.828 5.828 0 0 0 5.821 5.821h8.906a5.828 5.828 0 0 0 5.821-5.821V75.9a5.828 5.828 0 0 0-5.819-5.824z" transform="translate(0 -19.664)"/>
    </g>
</svg>
