<svg xmlns="http://www.w3.org/2000/svg" id="man-user" width="19.662" height="25.851" viewBox="0 0 19.662 25.851">
    <defs>
        <style>
            .cls-1{fill:#fff}
        </style>
    </defs>
    <path id="Path_12128" d="M109.739 12.643c2.874 0 5.2-2.83 5.2-6.321S114.179 0 109.739 0s-5.2 2.83-5.2 6.321 2.326 6.322 5.2 6.322z" class="cls-1" transform="translate(-99.908)"/>
    <path id="Path_12129" d="M41.9 300.481c0-.213 0-.06 0 0z" class="cls-1" transform="translate(-41.895 -278.187)"/>
    <path id="Path_12130" d="M308.085 301.68c0-.058 0-.4 0 0z" class="cls-1" transform="translate(-288.425 -279.219)"/>
    <path id="Path_12131" d="M61.556 186.652c-.1-6.082-.891-7.815-6.969-8.912a4.27 4.27 0 0 1-5.7 0c-6.012 1.085-6.854 2.792-6.965 8.714-.009.484-.013.509-.015.453v.639s1.447 2.917 9.829 2.917 9.829-2.917 9.829-2.917v-.473a3.931 3.931 0 0 1-.009-.421z" class="cls-1" transform="translate(-41.907 -164.612)"/>
</svg>
