<svg id="logout_1_" data-name="logout (1)" xmlns="http://www.w3.org/2000/svg" width="25.914" height="25.334" viewBox="0 0 25.914 25.334">
    <defs>
        <style>
            .cls-1{fill:#fff}
        </style>
    </defs>
    <path id="Path_12134" data-name="Path 12134" class="cls-1" d="M0 7.01V2.64a1.27 1.27 0 0 1 1.266-1.266h15.619a1.27 1.27 0 0 1 1.267 1.266v17.9a1.289 1.289 0 0 1-.675 1.118l-9.625 4.981a.639.639 0 0 1-.929-.57v-4.854H1.266A1.27 1.27 0 0 1 0 19.948v-6.923h2.533v5.023a.622.622 0 0 0 .633.633H6.9V7.938a1.289 1.289 0 0 1 .677-1.118l5.678-2.913H3.166a.622.622 0 0 0-.633.633v2.491H0z" transform="translate(7.762 -1.374)"/>
    <path id="Path_12135" data-name="Path 12135" class="cls-1" d="m65.791 16.743-4.116 4.116a1.263 1.263 0 0 0 0 1.836l4.116 4.116a1.288 1.288 0 0 0 1.858.021 1.346 1.346 0 0 0-.042-1.857l-1.857-1.836h7.2a1.249 1.249 0 0 0 .95-.422 1.433 1.433 0 0 0-.317-2.174 1.353 1.353 0 0 0-.633-.169h-7.2s1.836-1.836 1.857-1.836a1.277 1.277 0 1 0-1.815-1.794z" transform="translate(-61.279 -13.177)"/>
</svg>
